# xmcd
# Copyright (C) 1995-1998 Ti Kan
#
# Track frame offsets:
#       150
#       17395
#       48875
#
# Disc length: 960 seconds
#
# Revision: 0
# Processed by: cddbd v1.5PL3 Copyright (c) Steve Scherf et al.
# Submitted via: CD-Transfer v1.0
#
DISCID=1403be03
DTITLE=Hobos, The - 
DYEAR=04
DGENRE=
TTITLE0=Walk All Night
TTITLE1=Felling Like A Hobo
TTITLE2=Data Track
EXTD=
EXTT0=
EXTT1=
EXTT2=
PLAYORDER=
